<svg width="450" height="450" viewBox="0 0 450 450" fill="none" xmlns="http://www.w3.org/2000/svg">
<path d="M222.5 1.44338C224.047 0.550213 225.953 0.550212 227.5 1.44338L417.356 111.057C418.903 111.95 419.856 113.6 419.856 115.387V334.613C419.856 336.4 418.903 338.05 417.356 338.943L227.5 448.557C225.953 449.45 224.047 449.45 222.5 448.557L32.6443 338.943C31.0973 338.05 30.1443 336.4 30.1443 334.613V115.387C30.1443 113.6 31.0973 111.95 32.6443 111.057L222.5 1.44338Z" fill="#E5E5E5"/>
<path d="M226.75 2.74241L416.606 112.356C417.689 112.981 418.356 114.136 418.356 115.387V334.613C418.356 335.864 417.689 337.019 416.606 337.644L226.75 447.258C225.667 447.883 224.333 447.883 223.25 447.258L33.3943 337.644C32.3114 337.019 31.6443 335.864 31.6443 334.613V115.387C31.6443 114.136 32.3114 112.981 33.3943 112.356L223.25 2.74242C224.333 2.1172 225.667 2.1172 226.75 2.74241Z" stroke="#333F50" stroke-opacity="0.7" stroke-width="3"/>
<path d="M119 172.066L221.53 69.5354C223.483 67.5828 226.649 67.5828 228.602 69.5354L327.596 168.53C329.549 170.483 329.549 173.649 327.596 175.601L225.066 278.132L119 172.066Z" fill="#333F50" fill-opacity="0.7"/>
<path d="M122.536 281.601C120.583 279.649 120.583 276.483 122.536 274.53L225.066 172L331.132 278.066L228.602 380.596C226.649 382.549 223.483 382.549 221.53 380.596L122.536 281.601Z" fill="#333F50" fill-opacity="0.5"/>
<path d="M331 278H225V172L293.5 240.037L331 278Z" fill="#333F50" fill-opacity="0.7"/>
<path d="M119 172H225V278L156.5 209.963L119 172Z" fill="#333F50" fill-opacity="0.7"/>
</svg>
