<svg width="550" height="550" viewBox="0 0 550 550" fill="none" xmlns="http://www.w3.org/2000/svg">
<path d="M273.75 3.60844C274.523 3.16186 275.477 3.16186 276.25 3.60844L509.407 138.222C510.18 138.668 510.657 139.494 510.657 140.387V409.613C510.657 410.506 510.18 411.332 509.407 411.778L276.25 546.392C275.477 546.838 274.523 546.838 273.75 546.392L40.593 411.778C39.8195 411.332 39.343 410.506 39.343 409.613V140.387C39.343 139.494 39.8195 138.668 40.593 138.222L273.75 3.60844Z" stroke="#333F50" stroke-width="5"/>
<path d="M169 186.066L271.53 83.5354C273.483 81.5828 276.649 81.5828 278.602 83.5354L377.596 182.53C379.549 184.483 379.549 187.649 377.596 189.601L275.066 292.132L169 186.066Z" fill="#333F50" fill-opacity="0.7"/>
<path d="M172.536 295.601C170.583 293.649 170.583 290.483 172.536 288.53L275.066 186L381.132 292.066L278.602 394.596C276.649 396.549 273.483 396.549 271.53 394.596L172.536 295.601Z" fill="#333F50" fill-opacity="0.5"/>
<path d="M381 292H275V186L343.5 254.037L381 292Z" fill="#333F50" fill-opacity="0.7"/>
<path d="M169 186H275V292L206.5 223.963L169 186Z" fill="#333F50" fill-opacity="0.7"/>
<path d="M222.536 435.133C222.536 433.477 222.45 432.055 222.278 430.867C222.106 429.68 221.88 428.648 221.598 427.773C221.317 426.883 220.997 426.109 220.638 425.453C220.278 424.797 219.911 424.18 219.536 423.602C219.161 423.023 218.794 422.445 218.434 421.867C218.075 421.289 217.755 420.633 217.473 419.898C217.192 419.164 216.966 418.32 216.794 417.367C216.622 416.398 216.536 415.242 216.536 413.898V408.25C216.536 407.875 216.591 407.453 216.7 406.984C216.825 406.5 217.052 406.055 217.38 405.648C217.708 405.227 218.161 404.875 218.739 404.594C219.333 404.297 220.098 404.148 221.036 404.148C221.973 404.148 222.731 404.297 223.309 404.594C223.903 404.875 224.364 405.227 224.692 405.648C225.02 406.055 225.239 406.5 225.348 406.984C225.473 407.453 225.536 407.875 225.536 408.25V418.75H222.536V408.25C222.536 407.875 222.489 407.57 222.395 407.336C222.317 407.086 222.208 406.898 222.067 406.773C221.927 406.633 221.763 406.539 221.575 406.492C221.403 406.43 221.223 406.398 221.036 406.398C220.848 406.398 220.661 406.43 220.473 406.492C220.302 406.539 220.145 406.633 220.005 406.773C219.864 406.898 219.747 407.086 219.653 407.336C219.575 407.57 219.536 407.875 219.536 408.25V412.82C219.536 414.586 219.684 416.062 219.981 417.25C220.278 418.438 220.645 419.477 221.083 420.367C221.536 421.242 222.02 422.039 222.536 422.758C223.052 423.477 223.528 424.258 223.966 425.102C224.419 425.93 224.794 426.898 225.091 428.008C225.388 429.102 225.536 430.469 225.536 432.109V441.25C225.536 441.438 225.513 441.781 225.466 442.281C225.419 442.766 225.255 443.266 224.973 443.781C224.692 444.297 224.247 444.75 223.638 445.141C223.028 445.547 222.161 445.75 221.036 445.75C219.911 445.75 219.044 445.547 218.434 445.141C217.825 444.75 217.38 444.297 217.098 443.781C216.817 443.266 216.653 442.766 216.606 442.281C216.559 441.781 216.536 441.438 216.536 441.25V427.75H219.536V441.25C219.536 441.438 219.544 441.664 219.559 441.93C219.575 442.18 219.63 442.422 219.723 442.656C219.817 442.891 219.966 443.094 220.169 443.266C220.372 443.422 220.661 443.5 221.036 443.5C221.411 443.5 221.7 443.422 221.903 443.266C222.106 443.094 222.255 442.891 222.348 442.656C222.442 442.422 222.497 442.18 222.513 441.93C222.528 441.664 222.536 441.438 222.536 441.25V435.133ZM238.061 409V411.25H235.061V445H232.061V411.25H229.061V409H238.061ZM250.586 445H247.586L247.117 437.219H245.031L244.586 445H241.586L244.586 409H247.586L250.586 445ZM246.953 434.781L246.086 416.5L245.195 434.781H246.953ZM261.986 411.25H258.236V424.75H261.236V427H258.236V445H255.236V409H261.986V411.25ZM273.011 411.25H269.261V424.75H272.261V427H269.261V445H266.261V409H273.011V411.25ZM294.264 421H291.264V408.25C291.264 407.875 291.217 407.57 291.123 407.336C291.045 407.086 290.936 406.898 290.795 406.773C290.655 406.633 290.491 406.539 290.303 406.492C290.131 406.43 289.952 406.398 289.764 406.398C289.577 406.398 289.389 406.43 289.202 406.492C289.03 406.539 288.873 406.633 288.733 406.773C288.592 406.898 288.475 407.086 288.381 407.336C288.303 407.57 288.264 407.875 288.264 408.25V441.25C288.264 441.438 288.272 441.664 288.288 441.93C288.303 442.18 288.358 442.422 288.452 442.656C288.545 442.891 288.694 443.094 288.897 443.266C289.1 443.422 289.389 443.5 289.764 443.5C290.139 443.5 290.428 443.422 290.631 443.266C290.834 443.094 290.983 442.891 291.077 442.656C291.17 442.422 291.225 442.18 291.241 441.93C291.256 441.664 291.264 441.438 291.264 441.25V425.5H294.264V441.25C294.264 441.438 294.241 441.781 294.194 442.281C294.147 442.766 293.983 443.266 293.702 443.781C293.42 444.297 292.975 444.75 292.366 445.141C291.756 445.547 290.889 445.75 289.764 445.75C288.639 445.75 287.772 445.547 287.163 445.141C286.553 444.75 286.108 444.297 285.827 443.781C285.545 443.266 285.381 442.766 285.334 442.281C285.288 441.781 285.264 441.438 285.264 441.25V408.25C285.264 407.531 285.397 406.914 285.663 406.398C285.928 405.867 286.272 405.438 286.694 405.109C287.131 404.781 287.616 404.539 288.147 404.383C288.678 404.227 289.217 404.148 289.764 404.148C290.342 404.148 290.897 404.234 291.428 404.406C291.975 404.578 292.459 404.836 292.881 405.18C293.303 405.523 293.639 405.953 293.889 406.469C294.139 406.984 294.264 407.578 294.264 408.25V421ZM308.664 441.625C308.664 442.281 308.539 442.852 308.289 443.336C308.055 443.805 307.734 444.195 307.328 444.508C306.922 444.82 306.461 445.047 305.945 445.188C305.43 445.344 304.898 445.422 304.352 445.422C303.773 445.422 303.203 445.336 302.641 445.164C302.078 445.008 301.578 444.773 301.141 444.461C300.703 444.133 300.344 443.734 300.062 443.266C299.797 442.781 299.664 442.234 299.664 441.625V412.375C299.664 411.781 299.797 411.258 300.062 410.805C300.344 410.336 300.703 409.945 301.141 409.633C301.594 409.32 302.102 409.086 302.664 408.93C303.227 408.758 303.797 408.672 304.375 408.672C304.922 408.672 305.453 408.75 305.969 408.906C306.484 409.047 306.938 409.273 307.328 409.586C307.734 409.883 308.055 410.266 308.289 410.734C308.539 411.203 308.664 411.75 308.664 412.375V441.625ZM305.664 412.375C305.664 411.844 305.531 411.469 305.266 411.25C305.016 411.016 304.719 410.898 304.375 410.898C304.172 410.898 303.969 410.938 303.766 411.016C303.562 411.078 303.375 411.18 303.203 411.32C303.047 411.445 302.914 411.602 302.805 411.789C302.711 411.961 302.664 412.156 302.664 412.375V441.625C302.664 441.844 302.711 442.047 302.805 442.234C302.914 442.422 303.047 442.578 303.203 442.703C303.375 442.828 303.555 442.93 303.742 443.008C303.945 443.07 304.148 443.102 304.352 443.102C304.695 443.102 305 442.992 305.266 442.773C305.531 442.539 305.664 442.156 305.664 441.625V412.375ZM320.064 411.953C320.064 411.656 319.923 411.469 319.642 411.391C319.377 411.297 318.517 411.25 317.064 411.25V442.75C318.517 442.75 319.377 442.703 319.642 442.609C319.923 442.516 320.064 442.32 320.064 442.023V411.953ZM323.064 441.836C323.064 442.633 322.892 443.25 322.548 443.688C322.22 444.109 321.728 444.422 321.072 444.625C320.759 444.719 320.377 444.797 319.923 444.859C319.47 444.906 318.845 444.945 318.048 444.977C317.252 444.992 316.548 445 315.939 445H314.064V409C314.705 409 315.345 409.008 315.986 409.023C316.642 409.023 317.306 409.031 317.978 409.047C319.353 409.078 320.369 409.18 321.025 409.352C321.697 409.539 322.205 409.844 322.548 410.266C322.892 410.672 323.064 411.258 323.064 412.023V441.836ZM334.464 411.25H331.464V424.75H334.464V427H331.464V442.75H334.464V445H328.464V409H334.464V411.25Z" fill="#E7E7E7"/>
</svg>
