<svg width="213" height="319" viewBox="0 0 213 319" fill="none" xmlns="http://www.w3.org/2000/svg">
<path d="M0 106.066L102.53 3.53544C104.483 1.58282 107.649 1.58282 109.602 3.53544L208.596 102.53C210.549 104.483 210.549 107.649 208.596 109.601L106.066 212.132L0 106.066Z" fill="#333F50" fill-opacity="0.7"/>
<path d="M3.53554 215.601C1.58292 213.649 1.58291 210.483 3.53553 208.53L106.066 106L212.132 212.066L109.602 314.596C107.649 316.549 104.483 316.549 102.53 314.596L3.53554 215.601Z" fill="#333F50" fill-opacity="0.5"/>
<path d="M212 212H106V106L174.5 174.037L212 212Z" fill="#333F50" fill-opacity="0.7"/>
<path d="M0 106H106V212L37.5 143.963L0 106Z" fill="#333F50" fill-opacity="0.7"/>
</svg>
